<?xml version="1.0" standalone="no"?>
<!DOCTYPE svg PUBLIC "-//W3C//DTD SVG 1.1//EN" "http://www.w3.org/Graphics/SVG/1.1/DTD/svg11.dtd" >
<svg xmlns="http://www.w3.org/2000/svg" width="100%" height="100%">
<metadata>
Created by FontXChange 20110222 at Thu Oct  3 16:53:23 2013
 By Jonathan Miller
</metadata>
<defs>
<font id="Range" horiz-adv-x="611" >
  <font-face 
    font-family="Range"
    font-weight="400"
    font-stretch="normal"
    units-per-em="1000"
    panose-1="0 0 0 0 0 0 0 0 0 0"
    ascent="750"
    descent="-250"
    x-height="528"
    cap-height="733"
    bbox="23 -171 905.923 822.407"
    underline-thickness="50"
    underline-position="-50"
    unicode-range="U+000D-2044"
  />
<missing-glyph horiz-adv-x="382" 
 />
    <glyph glyph-name=".notdef" horiz-adv-x="382" 
 />
    <glyph glyph-name="NULL" horiz-adv-x="0" 
 />
    <glyph glyph-name="NULL" horiz-adv-x="0" 
 />
    <glyph glyph-name="nonmarkingreturn" unicode="&#xd;" horiz-adv-x="382" 
 />
    <glyph glyph-name="space" unicode=" " horiz-adv-x="360" 
 />
    <glyph glyph-name="c" unicode="c" horiz-adv-x="581" 
d="M290 -11q-54 0 -97 19t-74 53.5t-47.5 83.5t-16.5 110q0 62 17 113.5t48 88t74 56.5t96 20t89 -8t58.5 -18.5t33 -20t13.5 -13.5q5 -8 7 -17q2 -8 0.5 -17.5t-10.5 -19.5t-20 -10.5t-20 3t-15 7.5t-6 3l-6 5t-21 10t-40 9.5t-63 4.5q-42 0 -71.5 -17.5t-47.5 -45
t-26 -62.5t-8 -71q0 -21 4.5 -52.5t20 -61t46 -50.5t82.5 -21q37 0 62 5.5t39 12.5q17 8 26 18q9 14 25.5 18t30.5 -5t18 -25.5t-5 -31.5q-2 -3 -12 -14.5t-32.5 -24.5t-59.5 -23.5t-92 -10.5z" />
    <glyph glyph-name="y" unicode="y" horiz-adv-x="583" 
d="M503 532q15 -6 21.5 -22t-0.5 -31l-193 -451q-19 -57 -45.5 -93.5t-55 -58t-57 -30t-52.5 -8.5q-9 0 -16.5 1t-15.5 3q-16 5 -25 19t-4 31q4 17 18 25.5t31 3.5q3 0 18.5 -0.5t36 10t43.5 35.5t42 76l-187 437q-7 15 -1 31t22 22q16 7 31.5 1t22.5 -22l156 -364l156 364
q7 16 22.5 22t31.5 -1z" />
    <glyph glyph-name="x" unicode="x" horiz-adv-x="666" 
d="M556 59q11 -14 9.5 -30.5t-14.5 -27.5q-13 -10 -26 -10q-20 0 -32 15l-162 194l-162 -194q-12 -15 -32 -15q-13 0 -26 10q-13 11 -14.5 27.5t9.5 30.5l172 205l-172 205q-11 13 -9.5 29.5t14.5 27.5t30 9.5t28 -14.5l162 -194l162 194q11 13 27.5 14.5t30.5 -9.5
q13 -11 14.5 -27.5t-9.5 -29.5l-172 -205z" />
    <glyph glyph-name="w" unicode="w" horiz-adv-x="792" 
d="M558 -9q-12 0 -22 7t-15 18l-124 289l-124 -289q-5 -11 -15.5 -18.5t-23.5 -6.5t-23 8.5t-14 19.5l-161 462q-6 17 1 32t24 20q16 6 31 -1t21 -24l126 -363l120 280q5 11 15.5 18t22.5 7t22 -7t15 -18l120 -280l127 363q5 17 20.5 24t31.5 1q16 -5 23.5 -20t1.5 -32
l-161 -462q-5 -12 -15 -19.5t-22 -8.5h-2z" />
    <glyph glyph-name="v" unicode="v" horiz-adv-x="550" 
d="M273 2q-12 0 -22 7t-15 18l-194 452q-7 15 -0.5 31t22.5 22q15 7 31 1t22 -22l156 -364l156 364q7 16 22.5 22t31.5 -1q16 -6 22.5 -22t-0.5 -31l-194 -452q-10 -25 -38 -25z" />
    <glyph glyph-name="u" unicode="u" 
d="M324 -9h-32q-44 0 -81.5 16t-64.5 44.5t-42 67.5t-15 85v291q0 17 12 29t29 12t29 -12t12 -29v-291q0 -58 33.5 -94.5t87.5 -36.5h32q54 0 87 36.5t33 94.5v291q0 17 12 29t29 12t29 -12t12 -29v-291q0 -46 -15 -85t-42 -67.5t-64 -44.5t-81 -16z" />
    <glyph glyph-name="t" unicode="t" horiz-adv-x="464" 
d="M330 72q17 0 29 -12t12 -29t-12 -29t-29 -12q-26 0 -55.5 9t-55 29.5t-42.5 52.5t-17 79v270h-55q-17 0 -29 11.5t-12 28.5t12 29t29 12h55v175q0 17 12 28.5t29 11.5t29 -11.5t12 -28.5v-175h88q17 0 29 -12t12 -29t-12 -28.5t-29 -11.5h-88v-270q0 -32 12.5 -49.5
t28 -26t30 -10.5t17.5 -2z" />
    <glyph glyph-name="s" unicode="s" horiz-adv-x="565" 
d="M279 -9q-40 0 -76.5 9t-64 20t-45 20.5t-18.5 10.5q-14 9 -18 26t5 31t25.5 18t30.5 -5l13.5 -7.5t36 -16.5t51.5 -16.5t60 -7.5q49 0 76 8.5t39.5 22t14.5 31.5t2 37q0 5 -2.5 14t-17 19.5t-46.5 19.5t-90 14q-62 5 -99 22t-57 39t-26.5 45.5t-6.5 41.5q0 34 13.5 61.5
t39 47t60.5 30t79 10.5q51 0 85.5 -5.5t56.5 -13t33 -15t15 -11.5q7 -7 11 -16q3 -8 2.5 -17t-8.5 -19t-18.5 -12.5t-20 -1t-16 4t-5.5 2.5l-6.5 3.5t-22 7.5t-41.5 7.5t-65 3.5q-12 0 -31 -2t-36.5 -9t-30 -20.5t-12.5 -35.5q0 -5 2 -15t12.5 -20t33.5 -19t65 -12
q24 -2 63 -7.5t76.5 -21t64.5 -44t27 -76.5q0 -29 -6.5 -61t-28.5 -58.5t-64 -44t-114 -17.5z" />
    <glyph glyph-name="r" unicode="r" horiz-adv-x="513" 
d="M457 449q8 -16 2.5 -31.5t-21.5 -23.5q-15 -8 -31 -2.5t-24 20.5q-1 1 -5.5 8t-14.5 14.5t-25 13.5t-36 6q-19 0 -37 -13.5t-34 -33.5t-29 -42.5t-21 -39.5v-293q0 -17 -12 -29t-29 -12t-29 12t-12 29v463q0 17 12 29t29 12t29 -12t12 -29v-20q24 26 54 43.5t67 17.5
q41 0 70 -13t48 -29t27.5 -30t9.5 -15z" />
    <glyph glyph-name="q" unicode="q" horiz-adv-x="628" 
d="M504 536q17 0 28.5 -12t11.5 -29v-613q0 -17 -11.5 -29t-28.5 -12t-29 12t-12 29v163q-60 -54 -153 -54q-111 0 -173 70.5t-62 196.5q0 131 62 204.5t173 73.5q93 0 153 -52v11q0 17 12 29t29 12zM310 73q47 0 77 18t47 46.5t23 63.5t6 68q0 31 -6 64t-23 60t-47 44
t-77 17t-77 -18t-47 -46.5t-23 -63.5t-6 -68q0 -32 6 -64.5t23 -59.5t47 -44t77 -17z" />
    <glyph glyph-name="p" unicode="p" horiz-adv-x="639" 
d="M335 536q111 0 172.5 -73.5t61.5 -204.5q0 -126 -61.5 -196.5t-172.5 -70.5q-93 0 -153 54v-163q0 -17 -12 -29t-29 -12t-29 12t-12 29v613q0 17 12 29t29 12t29 -12t12 -29v-11q60 52 153 52zM335 73q47 0 77 17t47 44t23 59.5t6 64.5q0 33 -6 68t-23 63.5t-47 46.5
t-77 18t-77 -17t-47 -44t-23 -60t-6 -64q0 -33 6 -68t23 -63.5t47 -46.5t77 -18z" />
    <glyph glyph-name="n" unicode="n" horiz-adv-x="618" 
d="M329 536q203 0 203 -202v-302q0 -17 -12 -29t-29 -12t-29 12t-12 29v302q0 38 -7.5 61.5t-23 36.5t-38 17.5t-52.5 4.5q-32 0 -58 -16.5t-45.5 -38t-32 -43t-16.5 -31.5v-293q0 -17 -12 -29t-29 -12t-29 12t-12 29v463q0 17 12 29t29 12t29 -12t12 -29v-28
q28 28 65.5 48.5t86.5 20.5z" />
    <glyph glyph-name="uni00A0" unicode="&#xa0;" horiz-adv-x="0" 
 />
    <glyph glyph-name="n.001" horiz-adv-x="833" 
 />
    <glyph glyph-name="m" unicode="m" horiz-adv-x="802" 
d="M573 536q51 0 79 -23t41 -55.5t15 -67t2 -56.5v-302q0 -17 -12 -29t-29 -12t-29 12t-12 29v302q0 35 -2.5 58.5t-9 37t-17 19t-26.5 5.5q-21 0 -40 -11.5t-35 -27t-28 -33t-19 -29.5q1 -20 1 -41.5v-42.5v-237q0 -17 -12 -29t-29 -12t-29 12t-12 29v237q0 58 -2 94t-8 56
t-17 27.5t-29 7.5q-19 0 -38.5 -13.5t-37 -33.5t-32 -42.5t-23.5 -40.5v-292q0 -17 -12 -29t-29 -12t-29 12t-12 29v463q0 17 12 29t29 12t29 -12t12 -29v-28q26 28 59 48.5t72 20.5q48 0 75 -20t41 -53q26 28 62 50.5t81 22.5z" />
    <glyph glyph-name="l" unicode="l" horiz-adv-x="421" 
d="M308 81q17 0 29 -12t12 -29t-12 -29t-29 -12h-194q-17 0 -29 12t-12 29t12 29t29 12h56v564h-56q-17 0 -29 12t-12 29t12 28.5t29 11.5h97q17 0 29 -11.5t12 -28.5v-605h56v0z" />
    <glyph glyph-name="k" unicode="k" horiz-adv-x="585" 
d="M504 52q10 -14 6 -31t-18 -26q-11 -6 -22 -6q-10 0 -19.5 4.5t-14.5 13.5l-175 273l-73 -65v-186q0 -17 -12 -28.5t-29 -11.5t-29 11.5t-12 28.5v657q0 17 12 28.5t29 11.5t29 -11.5t12 -28.5v-361l223 197q12 12 29 11t28 -14t10.5 -30t-13.5 -28l-143 -126l182 -283v0z
" />
    <glyph glyph-name="j" unicode="j" horiz-adv-x="442" 
d="M265 536q17 0 29 -12t12 -29v-452q0 -104 -64 -158q-34 -29 -73 -37.5t-67 -8.5q-16 0 -25.5 1t-11.5 1q-17 3 -26.5 17t-6.5 31q2 17 16 26.5t31 6.5q20 -3 40 -1q17 2 36 7t35 19q35 30 35 96v411h-89q-17 0 -29 12t-12 29t12 29t29 12h129zM244 607q-25 0 -42.5 17.5
t-17.5 42.5t17.5 42t42.5 17t42 -17t17 -42t-17 -42.5t-42 -17.5z" />
    <glyph glyph-name="i" unicode="i" horiz-adv-x="460" 
d="M215 607q-24 0 -41.5 17.5t-17.5 42.5t17.5 42t41.5 17q25 0 42.5 -17t17.5 -42t-17.5 -42.5t-42.5 -17.5zM334 84q17 0 29 -12t12 -29t-12 -29t-29 -12h-194q-17 0 -29 12t-12 29t12 29t29 12h56v370h-56q-17 0 -29 12t-12 29t12 29t29 12h97q17 0 29 -12t12 -29v-411
h56z" />
    <glyph glyph-name="h" unicode="h" horiz-adv-x="649" 
d="M347 533q202 0 202 -202v-302q0 -17 -12 -28.5t-29 -11.5t-29 11.5t-12 28.5v302q0 38 -7.5 61.5t-22.5 36.5t-37.5 17.5t-52.5 4.5q-32 0 -58 -16.5t-45.5 -38t-32 -43t-17.5 -31.5v-293q0 -17 -12 -28.5t-29 -11.5t-29 11.5t-12 28.5v657q0 17 12 28.5t29 11.5
t29 -11.5t12 -28.5v-222q28 28 66 48.5t87 20.5z" />
    <glyph glyph-name="g" unicode="g" horiz-adv-x="574" 
d="M284 118q71 0 114 -15.5t66.5 -38.5t31 -49t7.5 -47q0 -64 -59.5 -101.5t-159.5 -37.5q-50 0 -90 10t-68.5 28t-44 43.5t-15.5 57.5q0 15 3.5 32.5t13 34.5t26.5 33t44 28q-5 12 -9 28.5t-5 39.5q-1 8 -0.5 19t2.5 22q-32 27 -46.5 63.5t-14.5 74.5q0 29 11 62.5t35 62
t63 47.5t95 19q40 0 70.5 -9.5t53.5 -25.5q2 15 13 25t27 10q17 0 29 -12t12 -29v-139v-4v-7q0 -33 -12 -65t-37.5 -58t-64 -42t-91.5 -16q-17 0 -33 2t-31 5v-2q1 -18 4 -28t5 -13q5 -2 8 -4.5t6 -5.5q10 1 20 1.5t21 0.5zM284 452q-45 0 -69.5 -15.5t-36 -35t-14 -37
t-2.5 -21.5q0 -99 122 -99q57 0 90 26.5t33 72.5q0 4 -2.5 21.5t-14 37t-36.5 35t-70 15.5zM284 -90q29 0 54 4.5t43.5 12t29 18.5t10.5 23q0 6 -2 17.5t-15 23t-41 19.5t-79 8t-78.5 -8t-40.5 -19.5t-15 -23t-2 -17.5q0 -25 39 -41.5t97 -16.5z" />
    <glyph glyph-name="f" unicode="f" horiz-adv-x="488" 
d="M385 723q17 -3 26.5 -17t5.5 -31q-3 -17 -17 -26.5t-31 -5.5q-6 1 -16.5 1.5t-23.5 -1t-25.5 -5.5t-22.5 -12q-26 -21 -24 -72v-45h88q17 0 29 -12t12 -29t-12 -29t-29 -12h-88v-96v-97v-88v-68h55q17 0 29 -12t12 -29t-12 -28.5t-29 -11.5h-96h-1h-96q-17 0 -29 11.5
t-12 28.5t12 29t29 12h56v68t0.5 88.5t0.5 97.5v95h-57q-17 0 -29 12t-12 29t12 29t29 12h56v44q-1 89 53 136q23 19 49 27t48.5 10t39 0t20.5 -3z" />
    <glyph glyph-name="e" unicode="e" horiz-adv-x="606" 
d="M314 -11q-5 0 -10 0.5t-10 0.5q-220 12 -231 281q-1 3 -1 7v4v18q0 30 10.5 70.5t37 77t72 61.5t114.5 25q70 0 115.5 -27.5t72 -67t37 -84t10.5 -77.5q0 -17 -12 -29t-29 -12h-343q3 -31 12 -59.5t26 -51.5t45 -37.5t69 -16.5q33 -2 54.5 2.5t34.5 11.5t18.5 13l5.5 6
q8 15 24 19.5t31 -3.5t19.5 -24.5t-3.5 -31.5q-2 -3 -11 -15.5t-28.5 -26t-51 -24t-78.5 -10.5zM145 319h301q-8 48 -30.5 75t-47 40t-45.5 15.5t-27 2.5q-45 0 -73 -15t-44.5 -36t-24 -44t-9.5 -38z" />
    <glyph glyph-name="z" unicode="z" horiz-adv-x="580" 
d="M485 82q17 0 29 -12t12 -29t-12 -29t-29 -12h-387q-12 0 -22 6.5t-15 17.5t-4 22.5t9 20.5l331 379h-299q-17 0 -29 12t-12 29t12 29t29 12h387q12 0 22 -6.5t15 -17.5q12 -23 -6 -44l-331 -378h300v0z" />
    <glyph glyph-name="o" unicode="o" horiz-adv-x="585" 
d="M290 -9q-111 0 -173 70.5t-62 196.5q0 131 62 204.5t173 73.5t172.5 -73.5t61.5 -204.5q0 -126 -61.5 -196.5t-172.5 -70.5zM290 454q-47 0 -77 -18t-47 -46.5t-23 -63.5t-6 -68q0 -32 6 -64.5t23 -59.5t47 -44t77 -17t77 17t47 44t23 59.5t6 64.5q0 33 -6 68t-23 63.5
t-47 46.5t-77 18z" />
    <glyph glyph-name="d" unicode="d" horiz-adv-x="642" 
d="M490 726q17 0 28.5 -11.5t11.5 -28.5v-646q0 -17 -11.5 -29t-28.5 -12t-29 12t-12 29v2q-59 -53 -153 -53q-111 0 -173 73t-62 204q0 126 62 196.5t173 70.5q93 0 153 -52v205q0 17 12 28.5t29 11.5zM296 70q47 0 77 18t47 46.5t23 63.5t6 68q0 31 -6 64t-23 60t-47 44
t-77 17t-77 -17t-47 -44t-23 -60t-6 -64q0 -33 6 -68t23 -63.5t47 -46.5t77 -18z" />
    <glyph glyph-name="Z" unicode="Z" horiz-adv-x="742" 
d="M623 0h-532q-26 0 -37 24q-5 11 -4 22.5t9 20.5l478 585h-435q-17 0 -29 12t-12 29t12 28.5t29 11.5h521q25 0 37 -23q5 -11 3.5 -22.5t-8.5 -20.5l-478 -585h446q17 0 29 -12t12 -29t-12 -29t-29 -12z" />
    <glyph glyph-name="Y" unicode="Y" horiz-adv-x="651" 
d="M622 726q14 -9 17.5 -25.5t-5.5 -30.5l-254 -392v-259q0 -17 -12 -29t-29 -12t-29 12t-12 29v259l-254 392q-9 14 -5.5 30.5t17.5 25.5q14 10 30.5 6t26.5 -18l226 -348l226 348q10 14 26.5 18t30.5 -6z" />
    <glyph glyph-name="X" unicode="X" horiz-adv-x="716" 
d="M639 58q11 -14 8.5 -30t-15.5 -27q-12 -9 -25 -9q-20 0 -33 16l-228 289l-228 -289q-13 -16 -33 -16q-13 0 -25 9q-14 11 -16 27t9 30l241 306l-241 305q-11 14 -9 30.5t16 27.5q14 10 30.5 8t27.5 -16l228 -289l228 289q11 14 27.5 16t30.5 -8q13 -11 15.5 -27.5
t-8.5 -30.5l-241 -305z" />
    <glyph glyph-name="W" unicode="W" horiz-adv-x="919" 
d="M876 731q17 -5 25 -19.5t3 -31.5l-195 -673q-4 -13 -14 -21t-24 -8q0 -1 -1 -1q-13 0 -23.5 7.5t-15.5 19.5l-157 428l-157 -428q-5 -12 -15.5 -20t-24.5 -6q-13 0 -23.5 8t-13.5 21l-196 673q-5 17 3 31.5t25 19.5t31.5 -3t19.5 -25l160 -554l153 415q10 27 38 27
q13 0 23.5 -7t15.5 -20l152 -415l161 554q5 17 19.5 25t30.5 3z" />
    <glyph glyph-name="V" unicode="V" horiz-adv-x="682" 
d="M341 -22q-12 0 -22.5 7t-15.5 19l-260 673q-6 16 0.5 31.5t22.5 21.5t31.5 -1t21.5 -23l222 -574l223 574q6 16 21.5 23t31.5 1t22.5 -21.5t0.5 -31.5l-260 -673q-11 -26 -39 -26z" />
    <glyph glyph-name="U" unicode="U" horiz-adv-x="727" 
d="M382 -22h-65q-43 0 -85.5 16.5t-76 51t-54.5 87t-21 124.5v435q0 17 12 28.5t29 11.5t29 -11.5t12 -28.5v-435q0 -51 13.5 -88.5t35 -61.5t49.5 -36t57 -12h65q29 0 56.5 12t49.5 36t35 61.5t13 88.5v435q0 17 12 28.5t29 11.5t29 -11.5t12 -28.5v-435q0 -72 -21 -124.5
t-54.5 -87t-76 -51t-84.5 -16.5z" />
    <glyph glyph-name="T" unicode="T" horiz-adv-x="662" 
d="M581 733q17 0 29 -11.5t12 -28.5t-12 -29t-29 -12h-208v-622q0 -17 -12 -29t-29 -12t-29 12t-12 29v622h-198q-17 0 -29 12t-12 29t12 28.5t29 11.5h488v0z" />
    <glyph glyph-name="S" unicode="S" horiz-adv-x="649" 
d="M301 -21q-54 0 -94.5 9.5t-68.5 21t-42.5 21.5t-15.5 11q-14 11 -15.5 28t9.5 30t28 14.5t30 -9.5q1 0 11.5 -7.5t31.5 -15.5t52.5 -15t73.5 -7q58 0 95 9t57 25t27.5 38.5t7.5 49.5q0 24 -7.5 44.5t-29 38t-60 33t-99.5 29.5q-109 24 -166 84t-50 144q3 32 18.5 64
t45 57.5t72.5 41t100 15.5q56 0 97 -14t67.5 -31t39.5 -32t14 -16q10 -14 7 -30.5t-17 -26.5t-30 -7.5t-26 16.5q-1 1 -10 11t-27.5 20.5t-47 19.5t-67.5 9q-43 0 -72 -11t-47 -26.5t-26 -33.5t-9 -33q-3 -36 13.5 -61t41.5 -41.5t52 -25.5t45 -13q51 -11 98 -27t83 -41.5
t57.5 -63.5t21.5 -93q0 -51 -15.5 -85.5t-39.5 -57t-54.5 -35t-60 -18t-56 -6.5t-43.5 -1z" />
    <glyph glyph-name="R" unicode="R" horiz-adv-x="686" 
d="M590 46q7 -15 0.5 -30.5t-21.5 -22.5q-8 -4 -16 -4q-12 0 -22.5 7t-15.5 18l-121 282q-17 -3 -37 -3h-198v-263q0 -17 -12 -29t-29 -12t-29 12t-12 29v663q0 17 12 28.5t29 11.5h239q65 0 110 -18t73 -47t40.5 -65t12.5 -73q0 -25 -5.5 -54.5t-19.5 -59t-37 -55.5
t-57 -43zM357 375q54 0 85 19t46.5 44.5t19.5 51.5t4 40q0 21 -6 42.5t-23.5 39t-47.5 29t-78 11.5h-198v-277h198z" />
    <glyph glyph-name="Q" unicode="Q" horiz-adv-x="759" 
d="M631 24q11 -13 9.5 -30t-14.5 -28q-12 -9 -27 -9q-19 0 -31 15l-39 46q-65 -39 -158 -39q-146 0 -223.5 97t-77.5 280t77.5 280t223.5 97q147 0 224.5 -97t77.5 -280q0 -187 -82 -284zM371 60q60 0 104 23l-70 84q-11 13 -9.5 30t14.5 28q14 11 30.5 9.5t27.5 -15.5
l69 -83q54 75 54 220q0 296 -220 296q-219 0 -219 -296t219 -296z" />
    <glyph glyph-name="P" unicode="P" horiz-adv-x="652" 
d="M139 -11q-17 0 -29 12t-12 29v663q0 17 12 28.5t29 11.5h239q70 0 115.5 -27.5t72.5 -67.5t37.5 -84.5t10.5 -78.5q0 -45 -14 -89t-43 -79t-73.5 -57t-105.5 -22h-198v-198q0 -17 -12 -29t-29 -12zM180 310h198q55 0 86 22t46 50.5t18.5 55.5t3.5 37q0 4 -1 19t-5.5 35
t-14 41.5t-27 39.5t-43.5 30t-63 12h-198v-342z" />
    <glyph glyph-name="O" unicode="O" horiz-adv-x="731" 
d="M358 -21q-146 0 -223.5 97t-77.5 280t77.5 280t223.5 97q147 0 224.5 -97t77.5 -280t-77.5 -280t-224.5 -97zM358 652q-219 0 -219 -296t219 -296q220 0 220 296t-220 296z" />
    <glyph glyph-name="N" unicode="N" horiz-adv-x="770" 
d="M620 -11q-21 0 -33 17l-415 562v-538q0 -17 -12 -29t-29 -12t-28.5 12t-11.5 29v663q0 13 7.5 23.5t20.5 14.5q12 5 24.5 1t20.5 -15l415 -562v538q0 17 12 28.5t29 11.5t29 -11.5t12 -28.5v-663q0 -13 -7.5 -23.5t-20.5 -15.5q-8 -2 -13 -2z" />
    <glyph glyph-name="M" unicode="M" horiz-adv-x="843" 
d="M700 -11q-17 0 -29 12t-12 29v532l-218 -316q-12 -17 -34 -17t-34 17l-218 316v-532q0 -17 -12 -29t-29 -12t-29 12t-12 29v663q0 13 8 23.5t21 15.5q13 4 25 -0.5t20 -15.5l260 -375l259 375q18 24 46 16q13 -5 21 -15.5t8 -23.5v-663q0 -17 -12 -29t-29 -12z" />
    <glyph glyph-name="L" unicode="L" 
d="M532 0h-391q-17 0 -29 12t-12 29v652q0 17 12 28.5t29 11.5t29 -11.5t12 -28.5v-611h350q17 0 29 -12t12 -29t-12 -29t-29 -12z" />
    <glyph glyph-name="K" unicode="K" horiz-adv-x="677" 
d="M597 55q10 -14 7.5 -30.5t-16.5 -27.5q-11 -8 -24 -8q-21 0 -33 17l-252 342l-108 -127v-191q0 -17 -12 -29t-29 -12t-29 12t-12 29v663q0 17 12 28.5t29 11.5t29 -11.5t12 -28.5v-346l319 372q11 13 27.5 14.5t29.5 -9.5t14.5 -28t-9.5 -30l-218 -254l263 -357v0z" />
    <glyph glyph-name="J" unicode="J" horiz-adv-x="606" 
d="M272 -11q-60 0 -100.5 23t-65 56t-36 69.5t-13.5 63.5q-1 17 10 29.5t28 14.5q17 1 29.5 -10t14.5 -28q0 -5 4 -27t17.5 -46t40 -43.5t71.5 -19.5q29 0 53 6t41.5 29t27.5 69.5t10 126.5v350h-122q-17 0 -28.5 12t-11.5 29t11.5 28.5t28.5 11.5h163q17 0 29 -11.5
t12 -28.5v-391q0 -61 -7 -117.5t-29.5 -100t-65 -69.5t-112.5 -26z" />
    <glyph glyph-name="I" unicode="I" horiz-adv-x="526" 
d="M387 82q17 0 28.5 -12t11.5 -29t-11.5 -29t-28.5 -12h-261q-17 0 -29 12t-12 29t12 29t29 12h89v570h-89q-17 0 -29 12t-12 29t12 28.5t29 11.5h261q17 0 28.5 -11.5t11.5 -28.5t-11.5 -29t-28.5 -12h-90v-570h90v0z" />
    <glyph glyph-name="H" unicode="H" horiz-adv-x="752" 
d="M609 733q17 0 29 -11.5t12 -28.5v-663q0 -17 -12 -29t-29 -12t-29 12t-12 29v296h-406v-296q0 -17 -12 -29t-29 -12t-29 12t-12 29v663q0 17 12 28.5t29 11.5t29 -11.5t12 -28.5v-285h406v285q0 17 12 28.5t29 11.5z" />
    <glyph glyph-name="G" unicode="G" horiz-adv-x="736" 
d="M360 -21q-146 0 -223.5 97t-77.5 280q0 86 20.5 155.5t58.5 119t92 76t121 26.5q65 0 109 -9t71.5 -21t41 -23.5t16.5 -15.5q11 -14 9 -30.5t-15 -27.5q-14 -10 -30 -8.5t-27 13.5q-1 1 -10 7.5t-29.5 14t-53.5 13.5t-82 6t-83.5 -17t-57.5 -44.5t-37 -61t-21 -66
t-9 -61.5t-2 -46q0 -296 219 -296q99 0 151 58q18 19 29.5 42.5t18 47.5t9 46t2.5 39h-187q-17 0 -29 12t-12 29t12 29t29 12h227q16 0 27.5 -10.5t13.5 -26.5q0 -2 1 -30.5t-5 -69.5t-22.5 -88t-52.5 -87q-75 -84 -212 -84z" />
    <glyph glyph-name="F" unicode="F" horiz-adv-x="624" 
d="M537 733q17 0 29 -11.5t12 -28.5t-12 -29t-29 -12h-382v-244h284q17 0 29 -12t12 -29t-12 -29t-29 -12h-284v-296q0 -17 -12 -29t-29 -12t-29 12t-12 29v663q0 17 12 28.5t29 11.5h423v0z" />
    <glyph glyph-name="E" unicode="E" horiz-adv-x="689" 
d="M560 82q17 0 29 -12t12 -29t-12 -29t-29 -12h-423q-17 0 -29 12t-12 29v652q0 17 12 28.5t29 11.5h423q17 0 29 -11.5t12 -28.5t-12 -29t-29 -12h-382v-244h284q17 0 29 -12t12 -29t-12 -29t-29 -12h-284v-244h382v0z" />
    <glyph glyph-name="D" unicode="D" horiz-adv-x="725" 
d="M344 0h-228q-17 0 -28.5 12t-11.5 29v652q0 17 11.5 28.5t28.5 11.5h228q71 0 127 -32t95 -83.5t59.5 -117.5t20.5 -133q0 -86 -20.5 -154.5t-59.5 -115.5t-95 -72t-127 -25zM157 82h187q72 0 115.5 29.5t66.5 73t30.5 93t7.5 89.5q0 52 -15 103.5t-43.5 91.5t-69 65
t-92.5 25h-187v-570z" />
    <glyph glyph-name="C" unicode="C" horiz-adv-x="749" 
d="M397 -11q-146 0 -223.5 97t-77.5 281q0 85 26.5 152.5t69.5 115t97 73t108 25.5q67 0 110.5 -11.5t70 -26.5t37.5 -29.5t14 -19.5q8 -16 2.5 -31.5t-20.5 -23.5q-14 -8 -30 -3t-24 19l-8.5 8.5t-25.5 15.5t-48.5 14.5t-77.5 6.5q-39 0 -78.5 -20t-70.5 -56.5t-50.5 -89.5
t-19.5 -119q0 -296 219 -296q51 0 85.5 11.5t55.5 26t30.5 26.5t10.5 13q8 15 24.5 19t31.5 -4q14 -8 18.5 -24t-3.5 -31q-1 -2 -14.5 -21t-43.5 -40.5t-78 -39.5t-117 -18z" />
    <glyph glyph-name="B" unicode="B" horiz-adv-x="729" 
d="M401 0h-261q-17 0 -29 12t-12 29v652q0 17 12 28.5t29 11.5h228q106 0 166 -50.5t60 -141.5q0 -50 -17 -84t-42 -56q45 -29 73.5 -78t28.5 -119q0 -44 -18 -81t-49.5 -64.5t-75 -43t-93.5 -15.5zM181 82h220q28 0 56 8t49.5 23t35 38t13.5 53q0 40 -13 69t-35 48
t-49.5 28t-56.5 9h-220v-276zM181 440h220h11t12 -1q3 1 9 1q5 0 18 4t26.5 15.5t24 31t10.5 50.5q0 111 -144 111h-187v-212z" />
    <glyph glyph-name="period" unicode="." horiz-adv-x="301" 
d="M162 -2q-24 0 -41.5 17.5t-17.5 42.5t17.5 42t41.5 17q25 0 42.5 -17t17.5 -42t-17.5 -42.5t-42.5 -17.5z" />
    <glyph glyph-name="A" unicode="A" horiz-adv-x="749" 
d="M705 45q6 -16 -0.5 -31.5t-23.5 -21.5q-16 -6 -31 1t-21 23q-21 56 -43 112t-43 111h-316q-22 -55 -43.5 -111t-42.5 -112q-5 -13 -15.5 -20t-23.5 -7q-7 0 -14 3q-16 6 -23 21.5t-1 31.5q65 172 112 290t79.5 194.5t54 117.5t35.5 60.5t23 22.5t17 3t17 -3t23 -22.5
t35 -60.5t54 -117.5t79.5 -194.5t111.5 -290zM510 321q-38 96 -71 173.5t-54 122.5q-22 -45 -55 -122.5t-71 -173.5h251z" />
    <glyph glyph-name="a" unicode="a" horiz-adv-x="597" 
d="M513 81q17 0 29 -12t12 -29t-12 -28.5t-29 -11.5q-20 0 -44 9.5t-41 31.5q-28 -15 -71 -28t-102 -13q-57 0 -96 18.5t-62.5 45.5t-33.5 56t-10 50q0 29 9.5 59t35 54.5t71.5 40t118 15.5q37 0 67.5 -4.5t53.5 -10.5v39q0 17 -2.5 33t-11.5 28t-26.5 19.5t-47.5 7.5
q-39 0 -65 -3.5t-42 -7.5q-18 -5 -28 -11q1 0 -4.5 -3.5t-15 -6.5t-21 -2t-22.5 11q-11 9 -11 20t4 20q4 11 14 21q4 4 15.5 11t33.5 14.5t56.5 13t85.5 5.5q24 0 53.5 -6t55.5 -24t43.5 -51.5t17.5 -88.5v-258q0 -24 23 -24zM135 170l3 -14t15 -30.5t36 -30.5t66 -14
q30 0 54.5 5t43.5 11.5t33 14t22 13.5v114q-19 6 -49.5 12.5t-71.5 6.5q-57 0 -88 -10t-45 -23.5t-16.5 -29t-2.5 -25.5z" />
    <glyph glyph-name="b" unicode="b" 
d="M320 533q111 0 172.5 -70.5t61.5 -196.5q0 -131 -61.5 -204t-172.5 -73q-94 0 -153 53v-2q0 -17 -12 -29t-29 -12t-29 12t-12 29v646q0 17 12 28.5t29 11.5t29 -11.5t12 -28.5v-205q60 52 153 52zM320 70q47 0 77 18t47 46.5t23 63.5t6 68q0 31 -6 64t-23 60t-47 44
t-77 17t-77 -17t-47 -44t-23 -60t-6 -64q0 -33 6 -68t23 -63.5t47 -46.5t77 -18z" />
    <glyph glyph-name="zero" unicode="0" horiz-adv-x="647" 
d="M313 -9q-44 0 -90 15t-83.5 56.5t-61 114.5t-23.5 190q0 63 10.5 127.5t39 117.5t78.5 86.5t130 33.5t130.5 -33.5t79 -86.5t38.5 -117.5t10 -127.5q0 -117 -23.5 -190t-61 -114.5t-83.5 -56.5t-90 -15zM313 651q-29 0 -60 -8.5t-56.5 -38t-42.5 -85.5t-17 -152
q0 -74 10 -124.5t26 -83t36 -50.5t39.5 -26t36.5 -9.5t28 -1.5t28.5 1.5t37 9.5t39.5 26t36 50.5t26 83t10 124.5q0 96 -17 152t-43 85.5t-57.5 38t-59.5 8.5z" />
    <glyph glyph-name="one" unicode="1" horiz-adv-x="572" 
d="M459 81q17 0 29 -12t12 -29t-12 -28.5t-29 -11.5h-325q-17 0 -29 11.5t-12 28.5t12 29t29 12h122v524l-96 -77q-14 -11 -30.5 -9t-27.5 15q-11 14 -9 30.5t16 27.5l162 130q20 15 43 4q11 -5 17 -15t6 -21v-609h122v0z" />
    <glyph glyph-name="nine" unicode="9" horiz-adv-x="626" 
d="M307 -9q-42 0 -77 11.5t-60 26t-39 26.5t-15 13q-12 12 -12 29t12 28q12 12 28.5 12t28.5 -11q0 -1 10 -9.5t28 -18.5t42.5 -18t53.5 -8q30 0 58 12t50 33q46 46 46 120v78q-32 -20 -71.5 -37t-82.5 -17q-73 0 -118.5 21t-71.5 53.5t-36 72.5t-10 78q0 124 63 187
q20 20 43 31.5t45.5 17.5t44.5 8t40 2q15 0 38.5 -1t49 -7.5t51 -20.5t46.5 -40t34.5 -66.5t15.5 -98.5v-93q1 -6 0 -11v-157q0 -107 -70 -177q-32 -33 -75.5 -51t-89.5 -18zM307 651q-28 0 -59.5 -6t-55.5 -30q-39 -39 -39 -129q0 -75 36.5 -109t117.5 -34q21 0 43.5 7.5
t43 19t38 24t29.5 23.5v80q-2 58 -16.5 89t-37 45.5t-49 17t-51.5 2.5z" />
    <glyph glyph-name="eight" unicode="8" horiz-adv-x="593" 
d="M443 393q50 -33 71.5 -84.5t21.5 -102.5q0 -37 -12.5 -75t-40 -69t-72.5 -50.5t-110 -19.5t-110 19.5t-73 50.5t-40.5 69t-12.5 75q0 51 22 102.5t72 84.5q-37 28 -54.5 67.5t-17.5 80.5q0 35 13 69.5t39 61.5t66.5 44t95.5 17t95.5 -17t66.5 -44t39 -61.5t13 -69.5
q0 -41 -17.5 -80.5t-54.5 -67.5zM168 541q0 -7 3 -25t16 -37t40 -33.5t74 -14.5t73.5 14.5t39.5 33.5t16 37t3 25t-3 25.5t-16 37.5t-39.5 33.5t-73.5 14.5t-74 -14.5t-40 -33.5t-16 -37.5t-3 -25.5zM301 73q50 0 80.5 13.5t47 34t21.5 43.5t5 42q0 16 -4.5 40.5t-20.5 47
t-46.5 39t-82.5 16.5t-82.5 -16.5t-46.5 -39t-20.5 -47t-4.5 -40.5q0 -19 5 -42t21.5 -43.5t47 -34t80.5 -13.5z" />
    <glyph glyph-name="seven" unicode="7" horiz-adv-x="614" 
d="M208 -4q-10 0 -17 3q-16 7 -22 23t1 31l267 592h-359q-17 0 -29 12t-12 29t12 28.5t29 11.5h422q23 0 34 -18q12 -19 3 -39l-292 -649q-5 -11 -15.5 -17.5t-21.5 -6.5z" />
    <glyph glyph-name="six" unicode="6" horiz-adv-x="634" 
d="M314 -10q-39 0 -80.5 9.5t-75 36.5t-56 75t-24.5 124v93v11v157q0 51 16.5 93.5t48.5 74.5t76.5 49.5t94.5 17.5q42 0 77 -11.5t60 -25.5t39 -26t15 -13q12 -12 12 -29t-12 -29t-29 -12t-29 12l-10 8.5t-27.5 18.5t-42 18t-53.5 8q-33 0 -62.5 -11.5t-50.5 -32.5
q-41 -41 -41 -110v-78q31 20 71 37t83 17q73 0 118.5 -20.5t71.5 -53t35.5 -72.5t9.5 -79q0 -128 -67 -195q-30 -31 -73 -46.5t-95 -15.5zM160 316v-80q1 -54 14.5 -87t34.5 -50t48.5 -22.5t56.5 -5.5q25 0 56 7.5t55 31.5q43 45 43 137q-1 75 -37 109t-117 34
q-21 0 -43.5 -7.5t-43 -19t-38 -24.5t-29.5 -23z" />
    <glyph glyph-name="five" unicode="5" horiz-adv-x="623" 
d="M327 -8q-51 0 -88 9.5t-62.5 21t-38.5 22t-16 13.5q-12 12 -12 29t12 29q12 11 28.5 11t28.5 -11q1 -1 10.5 -8t27.5 -14.5t45 -14t65 -6.5q42 0 68 17t39.5 42.5t18 54t4.5 51.5q0 154 -130 154q-33 0 -64.5 -4.5t-55.5 -10t-38.5 -10.5l-14.5 -5q-9 -3 -19 -2t-18 7
q-18 13 -18 34v292q0 17 12 28.5t29 11.5h325q17 0 29 -11.5t12 -28.5t-12 -29t-29 -12h-284v-197q28 7 66 13t80 6q100 0 155.5 -62t55.5 -174q0 -57 -14.5 -102.5t-42 -77.5t-66.5 -49t-88 -17z" />
    <glyph glyph-name="four" unicode="4" horiz-adv-x="628" 
d="M550 244q17 0 29 -12t12 -29t-12 -29t-29 -12h-56v-132q0 -17 -12 -29t-29 -12t-29 12t-12 29v132h-316q-25 0 -36 21q-5 11 -5 22t7 20l324 498q10 14 26.5 17.5t30.5 -5.5t17.5 -26t-5.5 -31l-284 -434h241v186q0 17 12 29t29 12t29 -12t12 -29v-186h56v0z" />
    <glyph glyph-name="three" unicode="3" horiz-adv-x="593" 
d="M399 389q24 -13 45 -31t37 -41t25.5 -51t9.5 -61q0 -47 -18 -86.5t-51 -68t-78.5 -44t-100.5 -15.5q-59 0 -97 15t-61 33.5t-32.5 34t-9.5 17.5q-7 16 -1 31.5t22 22.5t31 0.5t22 -21.5q1 -1 7 -9.5t20 -18t38 -17t61 -7.5t68 9.5t53 27t34 42t12 54.5q0 37 -20.5 64.5
t-49 44.5t-58 25.5t-48.5 8.5q-17 0 -29 12t-12 29t12 29t29 12q12 0 38 5t51.5 19.5t45 40.5t19.5 67q0 27 -17 44.5t-40.5 27.5t-48 13.5t-39.5 3.5q-38 0 -62 -6.5t-38.5 -14.5t-20.5 -15t-6 -8q-8 -15 -23.5 -20t-30.5 3q-16 8 -21 24t3 31q1 3 11.5 17t33 29.5t60 28
t94.5 12.5q42 0 82.5 -11t73 -32t52 -53t19.5 -74q0 -62 -27.5 -104.5t-68.5 -68.5z" />
    <glyph glyph-name="two" unicode="2" horiz-adv-x="582" 
d="M475 0h-371q-11 0 -20.5 5t-14.5 15q-11 21 0 41q1 1 11 16.5t30.5 42.5t52 63.5t75.5 80.5q86 87 134.5 159t48.5 115q0 25 -5.5 45.5t-21 35t-43 22.5t-71.5 8q-38 0 -64 -11.5t-42 -25t-23 -25l-7 -11.5q-7 -16 -22.5 -22t-31.5 1q-15 7 -21.5 22.5t1.5 31.5
q1 2 12 21t35.5 41.5t64.5 40.5t98 18q69 0 112.5 -17.5t67.5 -45.5t33 -62t9 -67q0 -125 -207 -332q-37 -37 -64.5 -69t-47.5 -56h292q17 0 28.5 -12t11.5 -29t-11.5 -28.5t-28.5 -11.5z" />
    <glyph glyph-name="colon" unicode=":" horiz-adv-x="341" 
d="M167 -1q-24 0 -41.5 17.5t-17.5 42.5t17.5 42t41.5 17q25 0 42.5 -17t17.5 -42t-17.5 -42.5t-42.5 -17.5zM167 353q-24 0 -41.5 17.5t-17.5 42.5t17.5 42t41.5 17q25 0 42.5 -17t17.5 -42t-17.5 -42.5t-42.5 -17.5z" />
    <glyph glyph-name="comma" unicode="," horiz-adv-x="238" 
d="M157 120q19 0 29.5 -7.5t15.5 -16.5t6.5 -17.5t1.5 -9.5v-65q0 -32 -11.5 -53t-25.5 -33t-26 -16.5t-15 -5.5q-4 -1 -10 -0.5t-11 6.5q-6 8 -4 14.5t6 8.5q11 3 20 13q8 8 14 22.5t6 39.5h-12q-18 0 -28 6.5t-15.5 15t-6.5 15.5t-1 9v23q0 1 1 9.5t6.5 17.5t15.5 16.5
t28 7.5h16z" />
    <glyph glyph-name="semicolon" unicode=";" horiz-adv-x="338" 
d="M164 120q19 0 29.5 -7.5t15.5 -16.5t6.5 -17.5t1.5 -9.5v-65q0 -32 -11.5 -53t-25.5 -33t-26 -16.5t-15 -5.5q-4 -1 -10 -0.5t-11 6.5q-6 8 -4 14.5t6 8.5q11 3 20 13q8 8 14 22.5t6 39.5h-12q-18 0 -28 6.5t-15.5 15t-6.5 15.5t-1 9v23q0 1 1 9.5t6.5 17.5t15.5 16.5
t28 7.5h16zM156 353q-24 0 -41.5 17.5t-17.5 42.5t17.5 42t41.5 17q25 0 42.5 -17t17.5 -42t-17.5 -42.5t-42.5 -17.5z" />
    <glyph glyph-name="quotesingle" unicode="'" horiz-adv-x="200" 
d="M103 720q19 0 29.5 -7.5t15.5 -16.5t6.5 -17.5t1.5 -9.5v-65q0 -32 -11.5 -53t-25.5 -33t-26 -16.5t-15 -5.5q-4 -1 -10 -0.5t-11 6.5q-6 8 -4 14.5t6 8.5q11 3 20 13q8 8 14 22.5t6 39.5h-12q-18 0 -28 6.5t-15.5 15t-6.5 15.5t-1 9v23q0 1 1 9.5t6.5 17.5t15.5 16.5
t28 7.5h16z" />
    <glyph glyph-name="question" unicode="?" horiz-adv-x="608" 
d="M221 199q0 55 4 88.5t15.5 55t32.5 34.5t55 28q18 7 35 13.5t31 18.5t22.5 34.5t8.5 62.5q0 15 -3 34t-15 36.5t-36.5 29.5t-67.5 12q-58 0 -83 -9t-28 -11q-17 -11 -34 -11t-24 11q-11 10 -12 24t10 27q1 1 8.5 9t26.5 16t51.5 15t84.5 7q57 0 96 -16.5t63 -43t34.5 -59
t10.5 -64.5q0 -41 -5.5 -70t-21 -52t-44 -42t-74.5 -39q-27 -12 -40.5 -26t-18 -31t-4 -37.5t0.5 -44.5h-79zM263 -1q25 0 42.5 17.5t17.5 42.5t-17.5 42t-42.5 17q-24 0 -41.5 -17t-17.5 -42t17.5 -42.5t41.5 -17.5z" />
    <glyph glyph-name="quotedblright" unicode="&#x201d;" horiz-adv-x="461" 
d="M190 723q17 0 28.5 -11.5t11.5 -28.5q0 -44 -10.5 -74.5t-23.5 -50t-25 -29t-15 -11.5q-8 -5 -20 -5q-22 0 -35 19q-8 14 -4 30.5t18 24.5q0 1 11.5 13t18.5 43h-9q-17 0 -29 11.5t-12 28.5t12 28.5t29 11.5h54zM336 723q17 0 28.5 -11.5t11.5 -28.5q0 -44 -10.5 -74.5
t-23.5 -50t-24.5 -29t-14.5 -11.5q-9 -5 -21 -5q-23 0 -34 19q-9 14 -5 30.5t18 24.5q1 1 12.5 13t18.5 43h-10q-17 0 -28.5 11.5t-11.5 28.5t11.5 28.5t28.5 11.5h54z" />
    <glyph glyph-name="asciitilde" unicode="~" horiz-adv-x="535" 
d="M324 199q-38 0 -59 15t-35 29q-11 11 -18 16t-18 5q-16 0 -28.5 -4t-20.5 -9.5t-12.5 -10l-4.5 -4.5q-10 -13 -26 -15.5t-30 7.5q-14 11 -16.5 27t8.5 30q6 8 17.5 18.5t28 19.5t37.5 15t47 6q37 0 58 -15t35 -29q11 -11 18.5 -16t18.5 -5q16 0 30 6t24.5 13.5t16.5 13.5
l6 6q11 14 27 15.5t29 -9.5t15 -27t-9 -29q-1 -1 -11 -12t-28 -23.5t-43.5 -23t-56.5 -10.5z" />
    <glyph glyph-name="quotedblleft" unicode="&#x201c;" horiz-adv-x="467" 
d="M316 593q17 0 28.5 -11.5t11.5 -28.5t-11.5 -28.5t-28.5 -11.5h-54q-17 0 -28.5 11.5t-11.5 28.5q0 44 10.5 74.5t23.5 50t24.5 28.5t14.5 11q15 9 31 5t25 -18q8 -14 4 -30.5t-18 -25.5q-7 -5 -12 -13q-5 -7 -10 -17t-8 -25h9zM170 593q17 0 28.5 -11.5t11.5 -28.5
t-11.5 -28.5t-28.5 -11.5h-54q-17 0 -29 11.5t-12 28.5q0 44 10.5 74.5t24 50t25 28.5t14.5 11q14 9 30.5 5t24.5 -18q9 -14 5 -30.5t-18 -25.5q-1 0 -12.5 -12.5t-18.5 -42.5h10z" />
    <glyph glyph-name="quoteright" unicode="&#x2019;" horiz-adv-x="833" 
d="M371 513q-10 0 -19.5 5t-14.5 14q-9 14 -4.5 30.5t18.5 24.5q0 1 11.5 13t18.5 43h-10q-17 0 -28.5 11.5t-11.5 28.5t11.5 28.5t28.5 11.5h55q17 0 28.5 -11.5t11.5 -28.5q0 -44 -10.5 -74.5t-23.5 -50t-25 -29t-15 -11.5q-8 -5 -21 -5z" />
    <glyph glyph-name="quoteleft" unicode="&#x2018;" horiz-adv-x="833" 
d="M321 513h-55q-17 0 -28.5 11.5t-11.5 28.5q0 44 10.5 74.5t23.5 50t25 28.5t15 11q14 9 30.5 5t24.5 -18q9 -14 4.5 -30.5t-18.5 -25.5q-7 -5 -12 -13q-5 -7 -10 -17t-8 -25h10q17 0 28.5 -11.5t11.5 -28.5t-11.5 -28.5t-28.5 -11.5z" />
    <glyph glyph-name="endash" unicode="&#x2013;" horiz-adv-x="542" 
d="M456 231h-369q-17 0 -28.5 11.5t-11.5 28.5t11.5 28.5t28.5 11.5h369q17 0 28.5 -11.5t11.5 -28.5t-11.5 -28.5t-28.5 -11.5z" />
    <glyph glyph-name="emdash" unicode="&#x2014;" horiz-adv-x="704" 
d="M617 231h-530q-17 0 -28.5 11.5t-11.5 28.5t11.5 28.5t28.5 11.5h530q17 0 28.5 -11.5t11.5 -28.5t-11.5 -28.5t-28.5 -11.5z" />
    <glyph glyph-name="exclam" unicode="!" horiz-adv-x="360" 
d="M180 187q-17 0 -28.5 11.5t-11.5 28.5v456q0 17 11.5 28.5t28.5 11.5t28.5 -11.5t11.5 -28.5v-456q0 -17 -11.5 -28.5t-28.5 -11.5zM180 -2q-24 0 -41.5 17.5t-17.5 42.5t17.5 42t41.5 17q25 0 42.5 -17t17.5 -42t-17.5 -42.5t-42.5 -17.5z" />
    <glyph glyph-name="at" unicode="@" horiz-adv-x="681" 
d="M352 561q59 0 99.5 -16t66 -40.5t36.5 -55t11 -60.5v-259q0 -17 -11.5 -28.5t-28.5 -11.5q-14 0 -24 7.5t-14 19.5q-26 -15 -53.5 -21t-49.5 -6q-42 0 -74 14.5t-53 38.5t-32 54.5t-11 62.5q0 31 11 61.5t32 54.5t52.5 39t72.5 15q20 -1 47.5 -9t54.5 -25q-3 40 -37.5 62
t-94.5 22q-28 0 -59 -14t-57.5 -42t-43.5 -69t-17 -95q0 -41 11 -80.5t34 -70.5t58.5 -50t84.5 -19h73q17 0 29 -11.5t12 -28.5t-12 -28.5t-29 -11.5h-73q-69 0 -119.5 26.5t-83.5 69t-49 96.5t-16 108q0 67 22.5 122.5t59.5 95.5t82.5 61.5t92.5 21.5zM384 170q4 0 20.5 2
t34.5 10.5t32 26.5t14 51q0 24 -13.5 41t-30.5 27.5t-33.5 15.5t-23.5 5q-27 0 -44 -9.5t-27.5 -23t-14.5 -29t-4 -27.5q0 -17 5.5 -33t16.5 -29t28 -20.5t40 -7.5z" />
    <glyph glyph-name="numbersign" unicode="#" horiz-adv-x="689" 
d="M500 357l-21 -114h51q17 0 28.5 -12t11.5 -29t-11.5 -28.5t-28.5 -11.5h-66l-25 -130q-2 -14 -13.5 -23t-25.5 -9h-8q-16 3 -25.5 16.5t-6.5 30.5l22 115h-146l-24 -130q-3 -14 -14.5 -23t-25.5 -9h-7q-17 3 -26 16.5t-6 30.5l21 115h-47q-17 0 -28.5 11.5t-11.5 28.5
t11.5 29t28.5 12h62l22 114h-51q-17 0 -29 12t-12 29t12 28.5t29 11.5h66l24 129q3 17 16.5 26.5t30.5 6.5t26.5 -16.5t5.5 -30.5l-21 -115h146l24 129q3 17 16.5 26.5t30.5 6.5t26 -16.5t6 -30.5l-22 -115h47q17 0 29 -11.5t12 -28.5t-12 -29t-29 -12h-62zM418 357h-145
l-22 -114h146z" />
    <glyph glyph-name="dollar" unicode="$" horiz-adv-x="672" 
d="M582 175q0 -60 -21 -98t-52.5 -60t-68.5 -31t-69 -12v-38q0 -17 -12 -28.5t-29 -11.5t-28.5 11.5t-11.5 28.5v36q-48 3 -84 12.5t-61 20.5t-38 20t-14 10q-13 11 -14.5 27.5t9.5 29.5t27.5 14.5t29.5 -9.5q1 0 10.5 -6.5t27.5 -14t44.5 -14.5t62.5 -9v271
q-101 26 -154 84.5t-46 138.5q2 29 15.5 58.5t38.5 53.5t61.5 41t84.5 22v27q0 17 11.5 28.5t28.5 11.5t29 -11.5t12 -28.5v-28q43 -6 75 -20t53 -29t31.5 -27t11.5 -13q10 -14 7.5 -30.5t-16.5 -26.5q-14 -9 -30 -6.5t-26 16.5l-7.5 7.5t-19.5 15.5t-32.5 18t-46.5 14v-253
q43 -12 81.5 -28.5t67 -41.5t45.5 -59.5t17 -82.5zM170 540q-2 -29 9 -51t29 -38t40 -27t42 -17v235q-33 -5 -55.5 -16.5t-36.5 -26.5t-20.5 -30.5t-7.5 -28.5zM371 55q40 4 65.5 14.5t40 26t20 35.5t5.5 44q0 20 -5.5 38t-20 33.5t-40 29.5t-65.5 27v-248z" />
    <glyph glyph-name="percent" unicode="%" horiz-adv-x="753" 
d="M609 514q11 -12 11 -29t-11 -28l-391 -391q-5 -6 -12.5 -8.5t-15.5 -2.5t-15.5 2.5t-12.5 8.5q-12 12 -12 29t12 28l390 391q11 11 28 11t29 -11zM371 442q0 -29 -11 -54t-29.5 -43.5t-44 -29.5t-53.5 -11q-29 0 -53.5 11t-43.5 29.5t-29.5 43.5t-10.5 54q0 28 10.5 53.5
t29.5 44t43.5 29.5t53.5 11q28 0 53.5 -11t44 -29.5t29.5 -44t11 -53.5zM176 442q0 -24 17 -41t40 -17q24 0 41 17t17 41q0 23 -17 40t-41 17q-23 0 -40 -17t-17 -40zM537 276q28 0 53.5 -11t44 -29.5t29.5 -44t11 -53.5q0 -29 -11 -54t-29.5 -43.5t-44 -29.5t-53.5 -11
q-29 0 -54 11t-43.5 29.5t-29.5 43.5t-11 54q0 28 11 53.5t29.5 44t43.5 29.5t54 11zM537 81q24 0 40.5 17t16.5 40q0 24 -16.5 40.5t-40.5 16.5t-40.5 -16.5t-16.5 -40.5q0 -23 16.5 -40t40.5 -17z" />
    <glyph glyph-name="asterisk" unicode="*" horiz-adv-x="561" 
d="M433 626q8 -15 2.5 -30.5t-20.5 -23.5l-83 -41l62 -69q11 -13 10.5 -29.5t-13.5 -27.5q-12 -11 -29 -10.5t-28 13.5l-67 75l-68 -75q-12 -13 -30 -13q-16 0 -27 10q-12 11 -13 27.5t10 29.5l62 69l-82 41q-15 8 -20.5 23.5t2.5 30.5t23.5 20.5t30.5 -2.5l72 -36v76
q0 17 11.5 28.5t28.5 11.5t28.5 -11.5t11.5 -28.5v-76l72 36q15 8 30.5 2.5t23.5 -20.5z" />
    <glyph glyph-name="asciicircum" unicode="^" horiz-adv-x="529" 
d="M386 449q-22 0 -34 18l-96 145l-97 -145q-9 -14 -25.5 -17.5t-30.5 6.5q-14 9 -17 25t6 30l130 195q12 18 34 18t33 -18l130 -195q10 -14 6.5 -30t-17.5 -25q-10 -7 -22 -7z" />
    <glyph glyph-name="parenright" unicode=")" horiz-adv-x="455" 
d="M135 -104q-22 0 -34 18q-9 14 -6 30t17 26q2 1 15.5 12t33.5 32t42.5 52.5t41.5 74.5t31.5 97.5t12.5 120.5q0 67 -13 122t-32.5 98t-42.5 74.5t-42.5 52.5t-33 31.5l-13.5 10.5q-14 10 -17 26t6 30t25.5 17.5t30.5 -6.5q2 -2 19 -14.5t40.5 -37.5t50.5 -62t50 -87
t38 -113.5t15 -141.5t-15 -141.5t-38 -114t-50 -87.5t-50.5 -61.5t-40.5 -37.5t-19 -14q-10 -7 -22 -7z" />
    <glyph glyph-name="parenleft" unicode="(" horiz-adv-x="474" 
d="M310 -104q-12 0 -22 7q-2 1 -19 14t-40.5 37.5t-50.5 61.5t-50 87.5t-38 114t-15 141.5t15 141.5t38 113.5t50 87t50.5 62t40.5 37.5t19 14.5q14 10 30.5 6.5t25.5 -17.5t6 -30t-17 -26q-2 -1 -15.5 -12t-33.5 -32t-42.5 -52.5t-41.5 -74.5t-31.5 -97.5t-12.5 -120.5
q0 -67 13 -122t32.5 -98t42.5 -74.5t42.5 -52.5t32.5 -31.5t14 -10.5q14 -10 17 -26t-6 -30q-12 -18 -34 -18z" />
    <glyph glyph-name="plus" unicode="+" horiz-adv-x="624" 
d="M496 312q17 0 28.5 -11.5t11.5 -28.5t-11.5 -28.5t-28.5 -11.5h-144v-144q0 -17 -12 -28.5t-29 -11.5t-28.5 11.5t-11.5 28.5v144h-144q-17 0 -28.5 11.5t-11.5 28.5t11.5 28.5t28.5 11.5h144v145q0 17 11.5 28.5t28.5 11.5t29 -11.5t12 -28.5v-145h144v0z" />
    <glyph glyph-name="equal" unicode="=" horiz-adv-x="668" 
d="M137 297q-17 0 -28.5 11.5t-11.5 28.5t11.5 29t28.5 12h369q17 0 28.5 -12t11.5 -29t-11.5 -28.5t-28.5 -11.5h-369zM506 226q17 0 28.5 -12t11.5 -29t-11.5 -28.5t-28.5 -11.5h-369q-17 0 -28.5 11.5t-11.5 28.5t11.5 29t28.5 12h369z" />
    <glyph glyph-name="braceright" unicode="}" horiz-adv-x="461" 
d="M85 -104q-17 0 -29 11.5t-12 28.5t12 28.5t29 11.5q1 0 15 1t30.5 7t30 17.5t13.5 32.5v195q0 47 19 78.5t42 51.5q-23 20 -42 51.5t-19 78.5v195q0 21 -14 33t-31 17q-19 6 -44 7q-17 0 -29 12t-12 29t12 28.5t29 11.5q22 0 51 -6t55.5 -22t45 -42.5t18.5 -67.5v-195
q0 -26 11 -43.5t24 -28t24 -15.5l11 -5q12 -4 19.5 -14.5t7.5 -23.5t-7.5 -23.5t-19.5 -14.5q-1 0 -12 -5.5t-24 -16.5t-23.5 -28t-10.5 -42v-195q0 -41 -18.5 -67.5t-45 -42.5t-55.5 -22t-51 -6z" />
    <glyph glyph-name="braceleft" unicode="{" horiz-adv-x="469" 
d="M324 -104q-22 0 -51 6t-55.5 22t-45 42.5t-18.5 67.5v195q0 25 -11 43t-24 28.5t-24 15.5l-11 5q-12 4 -19.5 14.5t-7.5 23.5t7.5 23.5t19.5 14.5q1 0 12 5t24 16t23.5 28.5t10.5 42.5v195q0 41 18.5 67.5t45 42.5t55.5 22t51 6q17 0 29 -11.5t12 -28.5t-11.5 -28.5
t-28.5 -12.5q-2 0 -16 -1t-30.5 -6.5t-30 -17t-13.5 -32.5v-195q0 -47 -19 -78.5t-42 -51.5q23 -20 42 -51.5t19 -78.5v-195q0 -21 13.5 -32.5t30 -17.5t30.5 -7t16 -1q17 0 28.5 -11.5t11.5 -28.5t-12 -28.5t-29 -11.5z" />
    <glyph glyph-name="greater" unicode="&#x3e;" horiz-adv-x="608" 
d="M155 -6q-18 0 -30 13q-11 13 -10.5 29.5t13.5 27.5l259 230l-259 230q-13 11 -13.5 27.5t10.5 29.5q11 12 27.5 13t28.5 -10l293 -260q14 -12 14 -30q0 -19 -14 -30l-293 -260q-10 -10 -26 -10z" />
    <glyph glyph-name="slash" unicode="/" horiz-adv-x="423" 
d="M74 -6q-10 0 -15 2q-16 7 -22.5 22t-0.5 31l260 650q7 16 22 22.5t31 0.5q15 -7 22 -22t0 -31l-260 -650q-5 -12 -15 -18.5t-22 -6.5z" />
    <glyph glyph-name="less" unicode="&#x3c;" horiz-adv-x="624" 
d="M449 -6q-16 0 -26 10l-293 260q-14 11 -14 30q0 18 14 30l293 260q12 11 28.5 10t27.5 -13q11 -13 10.5 -29.5t-13.5 -27.5l-259 -230l259 -230q13 -11 13.5 -27.5t-10.5 -29.5q-12 -13 -30 -13z" />
    <glyph glyph-name="backslash" unicode="\" horiz-adv-x="476" 
d="M369 -6q-12 0 -22.5 6.5t-15.5 18.5l-260 650q-6 16 0.5 31t21.5 22q16 6 31.5 -0.5t21.5 -22.5l260 -650q6 -16 -0.5 -31t-21.5 -22q-5 -2 -15 -2z" />
    <glyph glyph-name="bracketright" unicode="]" horiz-adv-x="405" 
d="M240 -104h-130q-17 0 -28.5 11.5t-11.5 28.5t11.5 28.5t28.5 11.5h90v765h-90q-17 0 -28.5 12t-11.5 29t11.5 28.5t28.5 11.5h130q17 0 29 -12q11 -11 11 -28v-846q0 -17 -11.5 -28.5t-28.5 -11.5z" />
    <glyph glyph-name="bracketleft" unicode="[" horiz-adv-x="410" 
d="M250 -104h-130q-17 0 -28.5 11.5t-11.5 28.5v846q0 17 11.5 28.5t28.5 11.5h130q17 0 28.5 -11.5t11.5 -28.5t-11.5 -29t-28.5 -12h-90v-765h90q17 0 28.5 -11.5t11.5 -28.5t-11.5 -28.5t-28.5 -11.5z" />
    <glyph glyph-name="ampersand" unicode="&#x26;" horiz-adv-x="673" 
d="M553 -6q-20 0 -32 15l-42 53q-32 -30 -77.5 -49t-109.5 -19q-35 0 -71 10.5t-65.5 34.5t-48 62.5t-18.5 94.5q0 31 10 57.5t27 48.5t38.5 41t45.5 36q-15 16 -31 36t-28.5 42.5t-20.5 46.5t-8 50q0 47 15 79.5t39 52.5t54.5 29t61.5 9q56 0 89.5 -17.5t51.5 -43.5
t24 -55.5t6 -53.5q0 -32 -10.5 -59t-28 -49.5t-40.5 -41.5t-47 -36l133 -167q7 24 8.5 41t1.5 19q0 17 11.5 29t28.5 12t28.5 -12t11.5 -29q0 -27 -7 -62t-25 -70l56 -70q11 -13 9 -29.5t-15 -27.5q-11 -8 -25 -8zM270 323q-41 -29 -70.5 -59t-29.5 -68q0 -41 14 -65.5
t33.5 -37t40 -16t34.5 -3.5q49 0 82 14.5t54 36.5zM292 644q-89 0 -89 -90q0 -17 7 -34t17.5 -34t24 -32.5t26.5 -28.5q42 28 73 59t31 70q0 31 -7.5 49t-20 27t-29 11.5t-33.5 2.5z" />
    <glyph glyph-name="hyphen" unicode="-" horiz-adv-x="550" 
d="M423 231h-282q-17 0 -28.5 11.5t-11.5 28.5t11.5 28.5t28.5 11.5h282q17 0 28.5 -11.5t11.5 -28.5t-11.5 -28.5t-28.5 -11.5z" />
    <glyph glyph-name="quotedbl" unicode="&#x22;" horiz-adv-x="443" 
d="M121 527q-17 0 -28.5 11.5t-11.5 28.5v126q0 17 11.5 28.5t28.5 11.5t28.5 -11.5t11.5 -28.5v-126q0 -17 -11.5 -28.5t-28.5 -11.5zM277 527q-17 0 -28.5 11.5t-11.5 28.5v126q0 17 11.5 28.5t28.5 11.5t28.5 -11.5t11.5 -28.5v-126q0 -17 -11.5 -28.5t-28.5 -11.5z" />
    <glyph glyph-name="fraction" unicode="&#x2044;" horiz-adv-x="495" 
d="M114 -6q-10 0 -15 2q-16 7 -22.5 22t-0.5 31l260 650q7 16 22 22.5t31 0.5q15 -7 22 -22t0 -31l-260 -650q-5 -12 -15 -18.5t-22 -6.5z" />
    <glyph glyph-name="underscore" unicode="_" horiz-adv-x="495" 
d="M432 81q17 0 28.5 -12t11.5 -29t-11.5 -28.5t-28.5 -11.5h-369q-17 0 -28.5 11.5t-11.5 28.5t11.5 29t28.5 12h369v0z" />
  </font>
</defs>
</svg>
